<svg xmlns="http://www.w3.org/2000/svg" viewBox="0 0 48 48"><defs><style>.cls-1{fill:#42a5f5;}.cls-2{fill:#424242;}</style></defs><title>Social Media</title><g id="Social_Media" data-name="Social Media"><path class="cls-1" d="M34,0H4A4,4,0,0,0,0,4V32a4,4,0,0,0,4,4H34a4,4,0,0,0,4-4V4A4,4,0,0,0,34,0ZM13,3a1,1,0,0,1,0,2A1,1,0,0,1,13,3ZM9,3A1,1,0,0,1,9,5,1,1,0,0,1,9,3ZM5,3A1,1,0,0,1,5,5,1,1,0,0,1,5,3ZM36,32a2,2,0,0,1-2,2H4a2,2,0,0,1-2-2V8H36Z"/><path class="cls-2" d="M48,18V38a4,4,0,0,1-4,4c0,5.33.17,5.49-.51,5.87a1,1,0,0,1-1,0L32.72,42H12a4,4,0,0,1-4-4h2a2,2,0,0,0,2,2H33c.39,0-.24-.31,9,5.23V41a1,1,0,0,1,1-1h1a2,2,0,0,0,2-2V18a2,2,0,0,0-2-2H40V14h4A4,4,0,0,1,48,18Z"/><path class="cls-2" d="M19,32c-.56,0-.42,0-4.41-4H10a3,3,0,0,1-3-3V13a3,3,0,0,1,3-3H28a3,3,0,0,1,3,3V25a3,3,0,0,1-3,3H23.41C19.37,32,19.56,32,19,32ZM10,12a1,1,0,0,0-1,1V25a1,1,0,0,0,1,1h5c.57,0,.43,0,4,3.59C22.6,26,22.44,26,23,26h5a1,1,0,0,0,1-1V13a1,1,0,0,0-1-1Z"/><path class="cls-1" d="M19,15a3.52,3.52,0,0,0-6,2.41A3.38,3.38,0,0,0,14.23,20L19,24l4.77-4A3.46,3.46,0,1,0,19,15Z"/></g></svg>